<svg width="405" height="250" viewBox="0 0 405 250" fill="none" xmlns="http://www.w3.org/2000/svg">
<rect x="154.011" y="60.4692" width="160" height="40" rx="20" transform="rotate(145 154.011 60.4692)" fill="#00C9DC"/>
<rect opacity="0.75" x="22.9431" y="96.4339" width="160" height="40" rx="20" transform="rotate(35 22.9431 96.4339)" fill="#0C55FE"/>
<rect opacity="0.75" x="22.9431" y="96.4339" width="160" height="40" rx="20" transform="rotate(35 22.9431 96.4339)" fill="#0C55FE"/>
<rect x="250" y="188.206" width="160" height="40" rx="20" transform="rotate(-35 250 188.206)" fill="#00C9DC"/>
<rect opacity="0.75" x="381.068" y="152.241" width="160" height="40" rx="20" transform="rotate(-145 381.068 152.241)" fill="#0C55FE"/>
<rect opacity="0.75" x="381.068" y="152.241" width="160" height="40" rx="20" transform="rotate(-145 381.068 152.241)" fill="#0C55FE"/>
<rect opacity="0.75" width="245.092" height="40.3448" rx="20.1724" transform="matrix(0.258819 -0.965926 0.949446 0.313929 150.919 236.741)" fill="#0C55FE"/>
<rect opacity="0.75" width="245.092" height="40.3448" rx="20.1724" transform="matrix(0.258819 -0.965926 0.949446 0.313929 150.919 236.741)" fill="#0C55FE"/>
</svg>
